<?xml version="1.0" encoding="utf-8"?>
<svg version="1.1" xmlns="http://www.w3.org/2000/svg" xmlns:xlink="http://www.w3.org/1999/xlink" x="0px" y="0px" viewBox="0 0 113.4 113.4">
  <defs>
    <style type="text/css">
      .bg {
        fill: #f0f7f2;
      }
      .c {
        fill: #318513;
      }
      @media (prefers-color-scheme: dark) {
        .bg {
          fill: #15202B;
        }
        .c {
          fill: #E0CDE6;
        }
      }
    </style>
  </defs>
  <path class="bg" d="M113.4,90.5c0,12.5-10.2,22.7-22.7,22.7h-68C10.2,113.2,0,103,0,90.5V22.9C0,10.5,10.2,0.3,22.7,0.3h68c12.5,0,22.7,10.2,22.7,22.7C113.4,23,113.4,90.5,113.4,90.5z"/>
    <path class="c" d="M28.1,71.5c0-4.8,0.6-9.4,1.6-13.9c1.1-4.5,2.7-8.8,4.8-12.8c1.9-4,4.3-8,7.2-11.2c2.7-3.4,5.6-6.4,8.9-8.9s7-4.5,10.7-5.7c3.8-1.3,7.7-1.9,11.6-1.9c4.6,0,8.3,1,10.8,2.9c2.6,1.9,3.8,4.6,3.8,8.1c0,1.3-0.2,2.7-0.6,4c-0.3,1.3-1,2.9-1.6,4.3L83,40.3l-3.2,3.4c-1.8-0.2-3.4-1.1-4.6-2.6c-1.3-1.3-2.1-2.7-2.4-4.5c1.3-0.8,4-2.7,5.6-6.2c0.7-1.5,1-2.8,1.2-3.9c0-0.4,0-1.6-0.9-2.8c-1.2-1.6-3.2-1.6-3.4-1.7c-0.8-0.1-1.7-0.1-2.9,0c-1.2,0.1-2.1,0.3-2.3,0.3c-2,0.4-3.4,1.2-4.6,1.9c-1.6,0.9-2.9,1.8-4,2.7c0,0-2.6,2.2-4.8,5.3c-8.1,11.5-11.7,33.2-11.7,33.2c-2.1,12.9-1.1,17.2,1.2,20.3c0.6,0.8,2.5,3.2,5.6,3.9c3,0.6,5.8-0.7,9.7-3.3c3.8-2.5,9-6.3,14.5-11.8c0.2,0.1,0.7,0.3,1,0.9c0.3,0.4,0.3,0.9,0.3,1c-1.9,2.6-4,4.9-6.2,7.5c-2.1,2.4-4,4.5-6.2,6.4C62.9,92.3,61,94,59,95.6c-0.7,0.5-1.7,1.1-3,1.9c-1.5,0.9-2.7,1.5-2.8,1.5c-2.6,1.3-12.3,0.1-18.8-7.2C28.7,85.3,28.1,77.3,28.1,71.5z"/>
</svg>
