<svg xmlns="http://www.w3.org/2000/svg" viewBox="0 0 295.52 338.67">
  <defs>
    <radialGradient id="radial-gradient" cx="116.95" cy="480.59" r="447.72" gradientUnits="userSpaceOnUse">
      <stop offset=".32" stop-color="#cb612f"/>
      <stop offset=".8" stop-color="#f4ed62"/>
    </radialGradient>
    <linearGradient id="linear-gradient" x1="148.43" x2="148.43" y1="336.14" y2="3.28" gradientUnits="userSpaceOnUse">
      <stop offset="0" stop-color="#be1e2d"/>
      <stop offset="1" stop-color="#f15a29"/>
    </linearGradient>
  </defs>
  <path fill="url(#linear-gradient)" d="M283 166.57a114.29 114.29 0 0110.28-30.83A85.09 85.09 0 00270 162a127.08 127.08 0 01-8.46-13.45 134.28 134.28 0 01-15.84-57.8 54.38 54.38 0 01-14.92 30.86 53.76 53.76 0 01-24.62 14.17c2.19-6.29 14.31-43.4-8.7-81.48C173.08 14 128.57 4.57 121.92 3.28a80.76 80.76 0 015.15 36.21c-3.25 35.34-29.64 56.2-35 60.29l-6-18c-11.17 6.62-39.88 25.69-55.65 62.93a131.92 131.92 0 00-10.31 54.39 35.18 35.18 0 01-6.42-6.85 36 36 0 01-6-14.12c-3.6 14.52-7.86 41.35 2.14 71.06 18.76 55.67 73.14 78.42 97.62 86a91.5 91.5 0 0026.73-64.52 4.84 4.84 0 00-2.3-2.62c-7.82-5.23-15.34-8.38-19.86-13.29a12.51 12.51 0 01-2.2-3.29 12.07 12.07 0 01-1.06-4.51 95.79 95.79 0 015.11-31.2 45.09 45.09 0 00-1.83-8.62 44.31 44.31 0 00-6.39-12.54 47.93 47.93 0 0114.08 3.44 48.65 48.65 0 0113.48 8.37 42.56 42.56 0 0133.57-5 37.28 37.28 0 0020-17.83 30.84 30.84 0 014.07 6.12c5.62 11.12 2.93 22.57 1.65 26.91q2.39 4.92 4.72 10.24c1.07 2.44 2.08 4.84 3.05 7.21a11.29 11.29 0 01.24 3.94c-.71 5.93-6.34 9-11.07 13-1.59 1.36-10 8.57-13.08 18.4s.29 19.39 1.75 23.49a38 38 0 002.33 5.31c3.47 6.4 6.34 10.79 7.11 11.92 2.55 3.72 4.52 10.89 1.75 26a141 141 0 0042.47-19.62c8.18-5.61 55.1-37.77 57.09-83.65 1.04-24.27-11.41-35.39-5.86-66.28z"/>
  <path fill="url(#radial-gradient)" d="M244.67 247.17a21.57 21.57 0 01-5.26 3.79c6.29-22.77 4.29-39.28 1-50.46-3.71-12.63-10.46-23.25-9.28-40.06a60.32 60.32 0 015-19.86c-2.49 3-11.85 13.6-27.37 15.77-20.36 2.84-34.78-11.09-37.22-13.44-20.54-19.77-16.18-52.2-12.64-61.25.45-1.17 4.66-11.57 4.09-11.83a.06.06 0 00-.06 0A530.54 530.54 0 00118 123.4c-7.35 10-14 19.89-20.08 29.45a19.85 19.85 0 01-4.3-3.29 19.62 19.62 0 01-3.58-5c-7 5.81-28.4 24.92-35.68 57.9A104.32 104.32 0 0057.81 259a38.81 38.81 0 01-6.58-2.8 38.13 38.13 0 01-7.46-5.28c7.73 37.82 34.51 67.51 68 79.61a91.49 91.49 0 0022.36-59.82 4.84 4.84 0 00-2.3-2.62c-7.82-5.23-15.34-8.38-19.86-13.29a12.51 12.51 0 01-2.2-3.29 12.07 12.07 0 01-1.06-4.51 95.79 95.79 0 015.11-31.2 45.09 45.09 0 00-1.83-8.62 44.31 44.31 0 00-6.39-12.54 47.93 47.93 0 0114.08 3.44 48.65 48.65 0 0113.48 8.37 42.56 42.56 0 0133.57-5 37.28 37.28 0 0020-17.83 30.84 30.84 0 014.07 6.12c5.62 11.12 2.93 22.57 1.65 26.91q2.39 4.92 4.72 10.24c1.07 2.44 2.08 4.84 3.05 7.21a11.29 11.29 0 01.24 3.94c-.71 5.93-6.34 9-11.07 13-1.59 1.36-10 8.57-13.08 18.4s.29 19.39 1.75 23.49a38 38 0 002.33 5.31c3.47 6.4 6.34 10.79 7.11 11.92 1.86 2.71 3.41 7.23 3.05 15.29a108.21 108.21 0 0058.24-84 21.4 21.4 0 01-4.12 5.72z"/>
</svg>
