<?xml version="1.0" encoding="utf-8"?>
<svg version="1.1" xmlns="http://www.w3.org/2000/svg" viewBox="0 0 972 972">
<style type="text/css">
	.st0{display:none;}
	.st1{display:inline;fill:#4060AC;}
	.st2{display:inline;fill:#3F5FAC;}
	.st3{display:inline;fill:#FDFEFE;}
	.st4{fill:#F1E8E3;}
	.st5{fill:#E1CEC1;}
	.st6{fill:#C4A28A;}
	.st7{fill:none;stroke:#675249;stroke-width:20;stroke-linecap:round;stroke-linejoin:round;stroke-miterlimit:10;}
	.st8{fill:none;stroke:#675249;stroke-width:20;stroke-linecap:round;stroke-linejoin:round;stroke-miterlimit:10;}
	.st9{display:none;fill:none;stroke:#675249;stroke-width:20;stroke-linecap:round;stroke-linejoin:round;stroke-miterlimit:10;}
	.st10{fill:#675249;}
	.st11{display:inline;fill:#65514A;}
</style>
	<path id="Background" class="st4" d="M778.8,77.08c-26.68-9.9-50.15-9.76-95.98-9.06c-25.71,0.39-47.5,0.72-75.18,5.33
		c-19.28,3.21-70.45,12.21-124.07,44.11c-69.3,41.22-106.49,99.14-123.41,130.45c12.39-16.86,32.52-39.68,62.85-58.91
		c59.41-37.66,119.62-37.28,143.77-35.77C536.85,183.15,506.92,213.08,477,243c9.6,3.95,21.66,7.77,35.83,9.78
		c35.22,4.99,64.02-3.95,79.42-10.15c2.62,20.04,4.65,48.9,0.82,83.15c-3.96,35.47-7.78,66.65-25.07,91.09
		c-35.95,50.84-115.16,50.24-198.62,49.59c-51.24-0.39-93.18-1.19-142.28-24.53c-46.05-21.9-75.79-52.9-92.11-72.94
		c3.83,17.55,11.01,41.53,25.21,67.53c13.42,24.58,28.68,42.81,40.81,55.29c-52.14,69.55-76.53,133.13-88.78,174.78
		c-17.35,59-21.5,111.96-25.58,163.98c-3.68,46.96-3.88,86.36-3.29,114.42c38.21,0,76.41,0,114.62,0
		c7.37-122.8,100.16-220.76,211.92-233.51c127.91-14.6,254.04,85.46,267.82,227.21c37.59,0.51,75.18,1.02,112.76,1.53
		c-17.47-55.38-33.11-117.84-44-186.78c-30.47-192.87-11.69-359.6,13.64-479.33c59.39,15.6,115.72-6.94,135.96-48.11
		c11.39-23.18,14.06-58.76-2.84-81.99c-7.78-10.7-14.23-11.24-55.54-33.65C789.07,83.95,795.09,83.12,778.8,77.08z"/>
		<path class="st5" d="M121.4,861.91c36.39-11.31,72.77-22.61,109.16-33.92c12.5-19.13,32.67-47.16,62.03-76.84
			c30.38-30.7,49.05-41.39,66.33-57.79c26.68-25.31,56.81-70.61,65.5-158.03c-34.53-1.31-123.25-9.48-203.2-74.75
			c-38.4-31.35-62.56-65.91-77.23-91.58c1.68,15.74,5.88,38.28,17,63.22c12.42,27.86,28.49,47.53,40.03,59.6
			c-3.97,6.45-7.94,12.9-11.91,19.34c10.52,12.68,21.18,20.85,28.71,25.82c11.9,7.85,25.95,17.13,44.61,17.62
			c11.32,0.3,13.29-2.93,24.23-2.2c15.03,0.99,26.75,8.1,34.14,13.77c-5.63,17-15.64,41.86-33.84,68.08
			c-27.97,40.28-41.08,36.07-71.63,73.59c-30.69,37.69-23.78,52.67-67.12,117.1C137.32,841.15,127.68,853.87,121.4,861.91z"/>
		<path class="st5" d="M642.69,259.84c24.07,8.51,43.32,16.09,55.03,20.83c-30.82,60.52-61.8,133.88-85.89,219.45
			c-11.08,39.37-19.47,76.94-25.82,112.21c29.13,9.43,58.26,18.87,87.38,28.3c0.93-24.06,14.23-334.74,80.84-364.93
			c30.25-13.71,52.29-5.63,52.29-5.63c21.21,7.78,31.59,27.73,35.22,35.74c0.43-17.5,5.44-29.38,11.28-37.64
			c12.79-18.09,29.41-18.53,42.39-36.65c8.47-11.83,11.18-25.31,11.64-37.14c-110.58,43.74-170.89,30.21-205.66,9.16
			c-49.62-30.03-63.95-85.48-122.06-93.91c-29.05-4.21-51.9,5.81-80.08,18.16c-91.73,40.22-139.1,119.93-135.97,123.06
			c1.77,1.77,45.45-61.93,127.25-86.58c32.94-9.93,62.94-10.77,85.55-9.28c-57.56,27.81-65.49,43.87-64,52.94
			C514.9,225.23,553.84,228.43,642.69,259.84z"/>
		<path class="st6" d="M81,945c39,0,78,0,117,0c1.48-18.85,5.44-46.17,17.08-76.73c28.3-74.3,81.91-114.93,75.92-121.6
			c-4.34-4.83-35.21,13.3-59.43,32.61c-36.82,29.36-36.93,43.69-64.5,56.53c-29.46,13.72-42.29,3.03-60.28,15.7
			C92.26,861.75,77.32,885.14,81,945z"/>
		<path class="st6" d="M684,945c20.67,3.41,47.12,5.07,76.91,0c8.04-1.37,15.58-3.1,22.6-5.05
			c-22.37-84.47-42.78-188.46-51.2-308.31c-9.73-138.57-0.67-259.26,13.24-354.86c-2.87,1.78-7.11,3.96-12.59,5.38
			c-4.69,1.21-8.82,1.48-11.92,1.44c-25.43,54.03-55.3,136.58-59.58,239.85c-1.76,42.42,1.12,80.67,5.94,113.59
			c-84.69-47.64-133.99-48.54-163.94-38.77c-9.75,3.18-33.71,12.79-51.84,1.69c-20.17-12.35-19.65-42.08-26.97-41.72
			c-7.79,0.38-5.68,33.9-25.39,76.03c-6.12,13.08-13.26,22.28-25.54,41.98c-17.48,28.03-34.91,48.77-46.96,61.96
			c5.9-3.02,127.71-62.78,243.06,9.6C675.85,814.34,683.5,934.21,684,945z"/>
		<path class="st6" d="M612.67,225.82c1.77-7.21,8.62-37.69-5.34-48.39c-12.89-9.87-36.23,2.69-66.63,19.04
			c-17.92,9.64-65.07,35-60.7,48.5c4.39,13.57,58.05,6.75,60.66,6.39C572.85,246.92,597.48,234.87,612.67,225.82z"/>
		<path class="st7" d="M105.55,699.18c0.25-1.22,0.49-2.45,0.74-3.67"/>
		<path class="st8" d="M866.71,254.44c5.85-2.17,13.82-6.04,20.93-13.22c22.17-22.37,25.13-62.77,10.76-89.41
			c-12.74-23.63-29.15-18.11-79.67-54.14c-36.65-26.13-35.08-34.07-58.71-47.23c-36.38-20.25-72.29-19.35-108.21-18.02
			c-39.03,1.45-104.56,3.89-170.88,47.4c-85.95,56.38-113.62,142.64-120.78,168.09"/>
		<path class="st8" d="M753.6,278.91C739.13,353.83,728.01,445.11,729,549c1.54,162.78,32.25,298.27,63,396c-15,0-30,0-45,0"/>
		<path class="st8" d="M423,540c-2.19,30.56-9.71,74.21-36,117c-27.97,45.53-60.41,62.8-90,90c-36.31,33.38-78.68,91.25-99,198
			c-39,0-78,0-117,0c3-42,6-84,9-126"/>
		<path class="st8" d="M432,711c17.74-0.45,100.34-0.62,171,63c74.24,66.85,80.19,154.52,81,171"/>
		<path class="st8" d="M207,495c-14.17,13.67-30.07,31.48-45,54c-27.88,42.06-40.55,82.7-46.72,110.9"/>
		<path class="st8" d="M590.49,296.67c-0.03,6.7-0.41,16.66-2.17,28.57c-3.35,22.6-6.57,44.35-21.32,61.77
			c-16.95,20.02-41.53,25.36-54,27c-20.42-0.1-51.67-0.18-90,0c-45.45,0.21-65.39,0.62-99,0c-80.06-1.49-98.74-6.14-108-9
			c-31.97-9.87-56.18-24.65-72-36c1.74,17.75,9.4,72.06,54,117c26.3,26.5,54.83,39.06,72,45"/>
		<path class="st8" d="M609.44,221.38c-9.06,8.43-28.27,24-57.29,31.4c-37.89,9.66-69.06-0.58-80.43-4.96
			c21.53-25.74,49.14-53.85,84.11-80.51c11.97-9.13,23.77-17.3,35.23-24.63c-0.02-4.75-0.7-13.29-5.2-22.68
			c-5.33-11.13-13.19-17.54-17.18-20.37"/>
		<path class="st8" d="M839.72,317.79c-4.02-17.81-12.05-39.29-29.75-46.83c-13.28-5.65-25.2-0.57-46.83,3.31
			c-17.41,3.12-42.2,5.67-73.49,2.6"/>
		<path class="st9" d="M638.12,139.73c-2.6-3.27-12.12-14.39-28.51-17.32c-9.71-1.74-17.74,0.14-22.07,1.51"/>
		<circle class="st10" cx="760.01" cy="136.01" r="27.56"/>
</g>
</svg>
