<svg xmlns="http://www.w3.org/2000/svg" viewBox="0 0 873.1 254.1">
  <defs>
    <radialGradient id="b" cx="117" cy="480.6" r="447.7" gradientUnits="userSpaceOnUse">
      <stop offset=".3" stop-color="#cb612f"/>
      <stop offset=".8" stop-color="#f4ed62"/>
    </radialGradient>
    <linearGradient id="a" x1="148.4" x2="148.4" y1="336.1" y2="3.3" gradientUnits="userSpaceOnUse">
      <stop offset="0" stop-color="#be1e2d"/>
      <stop offset="1" stop-color="#f15a29"/>
    </linearGradient>
  </defs>
  <path fill="url(#a)" d="M213.2 124.6a86.8 86.8 0 017.8-23.5 65.3 65.3 0 00-17.7 20 98.2 98.2 0 01-18.5-54.3 41 41 0 01-30.2 34.4c1.7-4.8 11-33.2-6.7-62.2C129.4 8.2 95.5 1 90.4 0c2.3 6 5 15.8 4 27.6a68 68 0 01-26.8 46L62.9 60c-8.5 5-30.4 19.6-42.5 48-7 16.9-8 32.1-7.8 41.6a27.1 27.1 0 01-9.5-16c-2.7 11-6 31.5 1.7 54.2 14.3 42.5 55.8 59.8 74.5 65.6a70 70 0 0020.4-49.2c-.3-1.1-1.4-1.7-1.8-2-6-4-11.7-6.4-15.1-10.1a9.5 9.5 0 01-2.5-6 72.5 72.5 0 013.9-23.8 33.1 33.1 0 00-6.3-16.2 36.8 36.8 0 0121 9 32.4 32.4 0 0125.6-3.8 29 29 0 0015.3-13.6c1.1 1.3 2.2 2.8 3.1 4.7a28.4 28.4 0 011.3 20.5A214.7 214.7 0 01150 176c.1.7.3 1.8.2 3-.6 4.5-4.9 6.9-8.5 10-1.2 1-7.6 6.5-10 14-2.3 7.6.3 14.8 1.4 18a113.6 113.6 0 007.2 13.2c2 2.7 3.5 8.2 1.3 19.7 9-2.4 20.6-6.8 32.5-15 6.2-4.2 42-28.8 43.5-63.8.8-18.5-8.7-27-4.5-50.6z"/>
  <path fill="url(#b)" d="M184 186.1c-1.5 1.5-3 2.4-4 3 4.7-17.5 3.2-30 .7-38.6-2.8-9.6-8-17.7-7-30.6.4-6.4 2.2-11.7 3.7-15.1-1.9 2.3-9 10.4-20.9 12a35.2 35.2 0 01-28.4-10.3c-15.6-15-12.3-39.8-9.6-46.7.3-.9 3.6-8.8 3.1-9A406.2 406.2 0 0071.9 114a14.7 14.7 0 01-6-6.3A80.5 80.5 0 0038.7 152c-4.4 19.9.2 36.1 2.6 43.1a29.2 29.2 0 01-10.7-6.1 82 82 0 0052 60.7 69.9 69.9 0 0017-45.6c-.3-1.1-1.3-1.7-1.7-2-6-4-11.7-6.4-15.2-10.2a9.5 9.5 0 01-2.5-6 72.5 72.5 0 014-23.7 33.1 33.1 0 00-6.3-16.2 36.8 36.8 0 0121 9 32.4 32.4 0 0125.6-3.8 29 29 0 0015.3-13.6c1 1.3 2.1 2.8 3 4.6a28.4 28.4 0 011.3 20.6 214.7 214.7 0 016 13.3c.1.7.3 1.7.1 3-.5 4.5-4.8 6.9-8.4 10-1.2 1-7.7 6.5-10 14-2.3 7.6.2 14.8 1.4 18 .5 1.6 1.1 2.9 1.7 4 2.7 4.9 4.9 8.2 5.5 9 1.4 2.1 2.6 5.6 2.3 11.7a82.6 82.6 0 0044.4-64c-.5 1.1-1.5 2.8-3.1 4.3z"/>
  <path fill="currentColor" d="M432.2 100a1582.8 1582.8 0 00-34.6 94h-26.3l-6.3-19.5-14-41.4h-.6l-14.1 39.4-7.7 21.5h-26.2a2055 2055 0 00-33.8-93.8l29.7-8.1 20.6 65.7h.5l21.2-62.1h20.8l20.2 62h.5l20.7-65.3 29.4 7.6zM479.2 78.8h-31v-23h31v23zm-.5 115.2h-30l.2-20a2913.4 2913.4 0 00-.1-79.7h30a5283 5283 0 01-.4 49.9 2044.4 2044.4 0 00.3 49.8zM538.1 194h-30l.2-28.8a6673.2 6673.2 0 00-.2-114.4h30L538 85a5700.4 5700.4 0 00.2 109zM636.5 164c0 5.3-1.5 10-4.5 13.9-3 4-6.7 7.2-11.3 9.7a57 57 0 01-17.5 5.7c-7 1.3-14 1.9-21.1 1.9-4.8 0-9 0-12.9-.2l-7.7-.3-2.4-21.5 7.4.4a246 246 0 0018.7-.1c2.7-.3 5.3-.7 7.7-1.5 3.6-1 6-2.2 7-3.6a8 8 0 001.8-5.2c0-1.8-.6-3.3-1.9-4.5a28.3 28.3 0 00-6-4.1c-2.2-1.3-5-2.8-8.6-4.3s-6.7-3.2-9.5-5a28 28 0 01-10-9.6 24.3 24.3 0 011-26c2.8-4 7-7.3 12.7-10.1a56.2 56.2 0 0116.6-4.8 151.4 151.4 0 0129.6-1.5l6.3.1 2.5 21.6c-1 0-2.8 0-5.5-.2s-6-.3-10.1-.3a55 55 0 00-14.6 2 13 13 0 00-5.5 3.3 6.3 6.3 0 00-1.8 4.4c0 1.9.8 3.5 2.3 4.9 1.5 1.3 3.5 2.6 6 3.9l9 4.5c3.6 1.7 6.5 3.1 8.6 4.4 4.5 2.7 7.9 5.8 10.2 9.4 2.3 3.5 3.5 7.8 3.5 12.6zM755.6 144.3c0 7.6-1.4 14.8-4.3 21.6a50.3 50.3 0 01-29 27.7 60.7 60.7 0 01-39.6 0 47.5 47.5 0 01-29-27.3 56 56 0 01-4.4-22.2 49.5 49.5 0 0132.5-48.7 58.2 58.2 0 0120.6-3.6c7.4 0 14.2 1 20.4 3.3a50.5 50.5 0 0132.8 49.2zm-29.8.4c0-4.6-.7-9.2-2-13.8a26.6 26.6 0 00-6.9-11.4 18 18 0 00-6.5-4.2c-2.6-.9-5.2-1.4-8-1.4-3.2 0-6 .5-8.4 1.5-2.4 1-4.7 2.7-6.9 5a26.4 26.4 0 00-6 10.6 42.6 42.6 0 000 27.1c1.4 4.3 3.8 8 7.1 11.1a17 17 0 006.5 4 23.1 23.1 0 0016-.2 19 19 0 006.8-4.5 29 29 0 006.2-10.6c1.4-4.3 2.1-8.7 2.1-13.2zM873 194h-29.9l.1-14.9.2-18.8a3084.3 3084.3 0 00-.2-27.3c-.1-6-1.2-10.4-3-13-2-2.8-5.4-4.1-10.3-4.1-3.3 0-7 .8-11.5 2.5s-8.5 3.6-12.4 5.9v11a4225 4225 0 00.3 58.7h-30l.1-13.7a2754.2 2754.2 0 00.1-58.9l-.2-27.1h29.4l-.1 9.3v.2c6.3-3.5 12.8-6.3 19.7-8.6 7-2.3 13-3.4 18.3-3.4 9 0 16.1 2.8 21.4 8.3 5.3 5.6 8 13 8 22.5a1064 1064 0 01-.3 33 1428.3 1428.3 0 00.4 38.4z"/>
</svg>
