<svg xmlns="http://www.w3.org/2000/svg" viewBox="0 0 932.96 254.05">
  <defs>
    <style>.w{fill:currentColor;}.cls-1{fill:url(#linear-gradient);}.cls-2{fill:url(#radial-gradient);}</style>
    <linearGradient id="linear-gradient" x1="110.52" y1="254.05" x2="110.52" gradientUnits="userSpaceOnUse"><stop offset="0" stop-color="#be1e2d"/><stop offset="1" stop-color="#f15a29"/></linearGradient>
    <radialGradient id="radial-gradient" cx="86.49" cy="364.3" r="341.72" gradientUnits="userSpaceOnUse"><stop offset="0.32" stop-color="#cb612f"/><stop offset="0.8" stop-color="#f4ed62"/></radialGradient>
  </defs>
  <path class="w" d="M457,96.84,412.82,211.61h-4L366.64,103.06l-42.4,108.55h-3.78L276.28,96.84h4.44l41.52,109.45L364.42,96.84h4.22l42.18,109.45L452.33,96.84Z" transform="translate(0 0)"/>
  <path class="w" d="M483.3,63.32a5.7,5.7,0,0,1-1.67-4,5.7,5.7,0,0,1,5.78-5.77,5.7,5.7,0,0,1,4,1.67,5.42,5.42,0,0,1,1.78,4.1,6.11,6.11,0,0,1-5.77,5.78A5.39,5.39,0,0,1,483.3,63.32Zm1.89,33.52h4.44V211.61h-4.44Z" transform="translate(0 0)"/>
  <path class="w" d="M540.69,46.89h4.44V211.61h-4.44Z" transform="translate(0 0)"/>
  <path class="w" d="M596.63,207.84q-12.21-4.44-18.87-11.32l2.66-3.55q6.66,6.43,17.87,10.76a66.87,66.87,0,0,0,24.31,4.33q19.54,0,28.86-6.77t9.33-18.76q0-8.66-5-13.65a30.08,30.08,0,0,0-12.21-7.33,178,178,0,0,0-19.87-4.77,161.71,161.71,0,0,1-21.86-5.22,32.7,32.7,0,0,1-14-8.88q-5.65-6.09-5.66-17,0-12.44,10.32-21t30.31-8.54a71.39,71.39,0,0,1,21.09,3.21q10.43,3.23,16.87,8.55l-2.67,3.55a47.9,47.9,0,0,0-16-8.21,65.07,65.07,0,0,0-19.31-2.89q-18,0-27,7a22.1,22.1,0,0,0-9,18.31q0,9.11,5.11,14.32a30.48,30.48,0,0,0,12.65,7.66,156.34,156.34,0,0,0,20,4.66,182.12,182.12,0,0,1,21.54,5.33,32.46,32.46,0,0,1,13.54,8.55q5.55,5.88,5.55,16.31a25.66,25.66,0,0,1-10.88,21.65q-10.87,8.1-31.75,8.1A75.42,75.42,0,0,1,596.63,207.84Z" transform="translate(0 0)"/>
  <path class="w" d="M712.62,204.84a52.22,52.22,0,0,1-20-20.75,61.79,61.79,0,0,1-7.22-30,61.17,61.17,0,0,1,7.22-29.86,52.48,52.48,0,0,1,20-20.65,58.49,58.49,0,0,1,57.06,0,52.57,52.57,0,0,1,20,20.65,61.27,61.27,0,0,1,7.21,29.86,61.9,61.9,0,0,1-7.21,30,52.31,52.31,0,0,1-20,20.75,58.42,58.42,0,0,1-57.06,0Zm54.73-3.66A48.44,48.44,0,0,0,785.77,182a57.66,57.66,0,0,0,6.66-27.86,57.63,57.63,0,0,0-6.66-27.86,47.73,47.73,0,0,0-18.42-19.1,54.06,54.06,0,0,0-52.39,0,47.69,47.69,0,0,0-18.43,19.1,57.63,57.63,0,0,0-6.66,27.86A57.66,57.66,0,0,0,696.53,182,48.4,48.4,0,0,0,715,201.18a53.31,53.31,0,0,0,52.39,0Z" transform="translate(0 0)"/>
  <path class="w" d="M920.75,108.5q12.19,12.31,12.21,35.41v67.7h-4.44v-67.7q0-21.09-10.77-32.31t-30.53-11.21q-22.43,0-35.4,13.43t-13,35.41v62.38h-4.44V96.84h4.44v30.64a45.59,45.59,0,0,1,17.76-23Q869,96.18,887,96.18,908.54,96.18,920.75,108.5Z" transform="translate(0 0)"/>
  <path class="cls-1" d="M213.19,124.63A87,87,0,0,1,221,101.1a65.35,65.35,0,0,0-10.78,10.13,64.57,64.57,0,0,0-6.94,9.94,98.19,98.19,0,0,1-6.46-10.27,102.65,102.65,0,0,1-12.09-44.1,41.42,41.42,0,0,1-11.39,23.54,41,41,0,0,1-18.78,10.82C156.25,96.36,165.51,68,148,39,129.33,8.17,95.36,1,90.29,0a61.79,61.79,0,0,1,3.92,27.64c-2.48,27-22.62,42.89-26.74,46q-2.3-6.87-4.58-13.72c-8.52,5-30.44,19.6-42.47,48a100.61,100.61,0,0,0-7.84,41.5,27.05,27.05,0,0,1-9.48-16C.35,144.53-2.9,165,4.74,187.69c14.31,42.49,55.81,59.85,74.5,65.65a69.79,69.79,0,0,0,20.4-49.24,3.7,3.7,0,0,0-1.76-2c-6-4-11.7-6.4-15.15-10.15a9.49,9.49,0,0,1-1.68-2.5,9.19,9.19,0,0,1-.81-3.45,72.48,72.48,0,0,1,.45-8.29,73.71,73.71,0,0,1,3.45-15.52,34.1,34.1,0,0,0-1.4-6.58A33.63,33.63,0,0,0,77.87,146a36.76,36.76,0,0,1,21,9,32.54,32.54,0,0,1,25.62-3.84,28.71,28.71,0,0,0,10.63-7.08,28.41,28.41,0,0,0,4.62-6.53,23.83,23.83,0,0,1,3.11,4.67c4.29,8.49,2.24,17.23,1.26,20.54,1.21,2.51,2.42,5.11,3.6,7.82.82,1.86,1.59,3.7,2.32,5.5a8.44,8.44,0,0,1,.19,3c-.54,4.53-4.84,6.86-8.45,10-1.21,1-7.66,6.55-10,14s.22,14.8,1.34,17.94a28.68,28.68,0,0,0,1.77,4c2.65,4.89,4.84,8.24,5.43,9.1,1.95,2.85,3.45,8.31,1.33,19.84a107.5,107.5,0,0,0,32.42-15c6.25-4.28,42-28.83,43.57-63.84C218.49,156.69,209,148.21,213.19,124.63Z" transform="translate(0 0)"/>
  <path class="cls-2" d="M184,186.14a16.24,16.24,0,0,1-4,2.9c4.81-17.38,3.28-30,.77-38.51-2.83-9.64-8-17.75-7.08-30.58a46.06,46.06,0,0,1,3.79-15.15c-1.9,2.3-9,10.38-20.89,12C141,119,130,108.37,128.13,106.57c-15.62-15.09-12.32-39.84-9.62-46.74.35-.9,3.56-8.84,3.12-9h0A402.63,402.63,0,0,0,87.28,91.68C81.67,99.34,76.57,106.86,72,114.16a15,15,0,0,1-3.28-2.51,14.68,14.68,0,0,1-2.73-3.85A80.49,80.49,0,0,0,38.71,152a79.62,79.62,0,0,0,2.64,43.17,28.57,28.57,0,0,1-5-2.14,29.3,29.3,0,0,1-5.7-4c5.91,28.87,26.35,51.53,51.94,60.76A69.72,69.72,0,0,0,99.64,204.1a3.7,3.7,0,0,0-1.76-2c-6-4-11.7-6.4-15.15-10.15a9.49,9.49,0,0,1-1.68-2.5,9.19,9.19,0,0,1-.81-3.45,72.48,72.48,0,0,1,.45-8.29,73.71,73.71,0,0,1,3.45-15.52,34.1,34.1,0,0,0-1.4-6.58A33.63,33.63,0,0,0,77.87,146a36.76,36.76,0,0,1,21,9,32.54,32.54,0,0,1,25.62-3.84,28.71,28.71,0,0,0,10.63-7.08,28.41,28.41,0,0,0,4.62-6.53,23.83,23.83,0,0,1,3.11,4.67c4.29,8.49,2.24,17.23,1.26,20.54,1.21,2.51,2.42,5.11,3.6,7.82.82,1.86,1.59,3.7,2.32,5.5a8.44,8.44,0,0,1,.19,3c-.54,4.53-4.84,6.86-8.45,10-1.21,1-7.66,6.55-10,14s.22,14.8,1.34,17.94a28.68,28.68,0,0,0,1.77,4c2.65,4.89,4.84,8.24,5.43,9.1,1.42,2.07,2.6,5.52,2.33,11.68a82.62,82.62,0,0,0,44.45-64.1A16.35,16.35,0,0,1,184,186.14Z" transform="translate(0 0)"/>
</svg>
